<?xml version="1.0" encoding="utf-8"?>
<!-- Generator: Adobe Illustrator 26.0.3, SVG Export Plug-In . SVG Version: 6.00 Build 0)  -->
<svg version="1.1" id="Шар_1" xmlns="http://www.w3.org/2000/svg" xmlns:xlink="http://www.w3.org/1999/xlink" x="0px" y="0px"
	 viewBox="0 0 400 400" style="enable-background:new 0 0 400 400;" xml:space="preserve">
<style type="text/css">
	.st0{fill:#FFFFFF;}
</style>
<g>
	<g>
		<path class="st0" d="M61.9,116.4c0.1,11.2,0.2,22.3,0.3,33.5c6.7,0,13.3,0,20,0c2.8,0.2,7.8,1,12.9,4.1c0.3,0.2,4.3,2.5,7.6,6.5
			c5.5,6.8,8.2,15.9,8.2,27.4v61.7H74.5v-51.5c0-4.2-0.4-7-1.3-8.4s-2.6-2.1-5.1-2.1c-4.1,0-6.2,3-6.2,9.1v52.9H25.4V116.4H61.9z"/>
		<path class="st0" d="M180.8,151.3c0.2,12.2,0.4,24.3,0.5,36.5c-2.3,0-4.7,0-7,0c-2.5-0.1-4.1,0.5-5,1c-5.5,2.9-5.9,10.8-6,12
			c-0.1,0.8,0,1.5,0,2c0.2,15.6,0.4,31.2,0.6,46.8h-36.5v-53.2c0-14.1,3.8-25.3,11.5-33.6c7.7-8.4,17.9-12.6,30.8-12.6
			C172.5,150.2,176.2,150.6,180.8,151.3z"/>
		<path class="st0" d="M243.3,215.8c0,11.3,0,22.7,0,34c-2.1,0.1-5.2,0.2-9,0c-7.7-0.4-13.6-0.6-20.1-3.6c-6.1-2.7-9.8-6.5-12.4-9
			c-9.8-9.6-14.6-21.7-14.6-36.2c0-14.1,4.9-26.1,14.8-35.9c9.9-9.8,21.9-14.8,36-14.8c15.8,0,28.2,4.6,37.3,13.8
			c9.1,9.2,13.6,21.8,13.6,37.7v47.8h-36.5v-45.1c0-5.1-1.2-9.2-3.8-12.3s-5.9-4.6-10.1-4.6c-3.8,0-7.2,1.4-10,4.2s-4.2,6.1-4.2,10
			c0,4,1.3,7.4,3.8,10c0.4,0.4,1.5,1.5,3.2,2.4c0.7,0.4,2.6,1.4,5,1.6c0.7,0.1,0.8,0,4,0C241.6,215.8,242.6,215.8,243.3,215.8z"/>
		<path class="st0" d="M339.9,249.4h-7c-8.3,0-15-6.7-15-15v-66.9c2.9-11.3,5.8-13.9,8-14c3.5-0.3,5.2,5.8,10,6c5,0.2,7.2-6.4,11-6
			c2.2,0.2,5.2,2.8,8,14v66.9C355,242.7,348.2,249.4,339.9,249.4z"/>
		<rect x="318" y="216.4" class="st0" width="37" height="33"/>
		<path class="st0" d="M438,171.4"/>
	</g>
	<path class="st0" d="M383.9,165.9c-2.6-12.8-5-23.8-7.1-33c-0.7-2.9-1.7-7.3-5.6-10.5c-3.5-2.8-7.6-3.4-10.1-3.5
		c-9.5-0.4-18.2-0.7-25.6-0.8v35.3c3.1,0,6.1,0,9.2,0c0.6,0.1,2.5,0.4,4.1,2c0.9,0.9,1.3,1.9,1.5,2.5c1,4,2,8,3.1,12
		c4.1,13,18.4,11,18.4,11c0.9-0.2,7.9-1.6,11-7.9C384,170.1,384,167.4,383.9,165.9z M363.6,140.4H361v2.5c0,1.9-1.6,3.5-3.5,3.5
		h-0.1c-1.9,0-3.5-1.6-3.5-3.5v-2.5h-2.6c-1.9,0-3.5-1.6-3.5-3.5s1.6-3.5,3.5-3.5h2.6v-2.5c0-1.9,1.6-3.5,3.5-3.5h0.1
		c1.9,0,3.5,1.6,3.5,3.5v2.5h2.6c1.9,0,3.5,1.6,3.5,3.5C367.1,138.9,365.5,140.4,363.6,140.4z"/>
	<path class="st0" d="M311.9,118.9c-2.5,0.1-6.6,0.7-10.1,3.5c-3.9,3.2-5,7.6-5.6,10.5c-2.1,9.2-4.6,20.2-7.1,33
		c-0.1,1.5-0.1,4.2,1.3,7.1c3,6.3,10.1,7.7,11,7.9c0,0,14.3,2,18.4-11c1-4,2-8,3.1-12c0.2-0.6,0.6-1.6,1.5-2.5
		c1.5-1.6,3.4-1.9,4.1-2c3.1,0,6.1,0,9.2,0v-35.3C330,118.2,321.4,118.5,311.9,118.9z M319.1,143.4c-3.9,0-7.1-3.1-7.1-7
		s3.2-7,7.1-7s7.1,3.1,7.1,7C326.2,140.3,323,143.4,319.1,143.4z"/>
</g>
</svg>
